solid Extruder Bracket
facet normal -0.5113587493402301 -0.0 -0.8593673425684709
  outer loop
    vertex 9.55022329772084 0.0 8.649066213365597
    vertex 9.079109520557186 -3.9999999999999982 8.929398197086707
    vertex 9.079109520557186 0.0 8.929398197086707
  endloop
endfacet
facet normal -0.5113587493402301 -0.0 -0.8593673425684709
  outer loop
    vertex 9.079109520557186 -3.9999999999999982 8.929398197086707
    vertex 9.55022329772084 0.0 8.649066213365597
    vertex 9.55022329772084 -3.9999999999999982 8.649066213365597
  endloop
endfacet
facet normal -0.7163552574824703 -0.0 -0.697735727247232
  outer loop
    vertex 9.55022329772084 0.0 8.649066213365597
    vertex 9.932729005865411 -3.9999999999999982 8.256353092414392
    vertex 9.55022329772084 -3.9999999999999982 8.649066213365597
  endloop
endfacet
facet normal -0.7163552574824703 -0.0 -0.697735727247232
  outer loop
    vertex 9.932729005865411 -3.9999999999999982 8.256353092414392
    vertex 9.55022329772084 0.0 8.649066213365597
    vertex 9.932729005865411 0.0 8.256353092414392
  endloop
endfacet
facet normal -0.8725333386603138 -0.0 -0.4885545751769053
  outer loop
    vertex 9.932729005865411 0.0 8.256353092414392
    vertex 10.200559513101423 -3.9999999999999982 7.7780215844367975
    vertex 9.932729005865411 -3.9999999999999982 8.256353092414392
  endloop
endfacet
facet normal -0.8725333386603138 -0.0 -0.4885545751769053
  outer loop
    vertex 10.200559513101423 -3.9999999999999982 7.7780215844367975
    vertex 9.932729005865411 0.0 8.256353092414392
    vertex 10.200559513101423 0.0 7.7780215844367975
  endloop
endfacet
facet normal -0.9692497147379777 -0.0 -0.24607923618287894
  outer loop
    vertex 10.200559513101423 0.0 7.7780215844367975
    vertex 10.335462612971577 -3.9999999999999982 7.2466691912212955
    vertex 10.200559513101423 -3.9999999999999982 7.7780215844367975
  endloop
endfacet
facet normal -0.9692497147379777 -0.0 -0.24607923618287894
  outer loop
    vertex 10.335462612971577 -3.9999999999999982 7.2466691912212955
    vertex 10.200559513101423 0.0 7.7780215844367975
    vertex 10.335462612971577 0.0 7.2466691912212955
  endloop
endfacet
facet normal -0.9999133245171351 -0.0 0.013165996091844127
  outer loop
    vertex 10.335462612971577 0.0 7.2466691912212955
    vertex 10.328244882157636 -3.9999999999999982 6.698506700264176
    vertex 10.335462612971577 -3.9999999999999982 7.2466691912212955
  endloop
endfacet
facet normal -0.9999133245171351 -0.0 0.013165996091844127
  outer loop
    vertex 10.328244882157636 -3.9999999999999982 6.698506700264176
    vertex 10.335462612971577 0.0 7.2466691912212955
    vertex 10.328244882157636 0.0 6.698506700264176
  endloop
endfacet
facet normal -0.9624344936653484 -0.0 0.2715139874907454
  outer loop
    vertex 10.328244882157636 0.0 6.698506700264176
    vertex 10.179398197086707 -3.9999999999999982 6.170890479442815
    vertex 10.328244882157636 -3.9999999999999982 6.698506700264176
  endloop
endfacet
facet normal -0.9624344936653484 -0.0 0.2715139874907454
  outer loop
    vertex 10.179398197086707 -3.9999999999999982 6.170890479442815
    vertex 10.328244882157636 0.0 6.698506700264176
    vertex 10.179398197086707 0.0 6.170890479442815
  endloop
endfacet
facet normal -0.8593673425684704 -0.0 0.5113587493402313
  outer loop
    vertex 10.179398197086707 0.0 6.170890479442815
    vertex 9.899066213365597 -3.9999999999999982 5.699776702279161
    vertex 10.179398197086707 -3.9999999999999982 6.170890479442815
  endloop
endfacet
facet normal -0.8593673425684704 -0.0 0.5113587493402313
  outer loop
    vertex 9.899066213365597 -3.9999999999999982 5.699776702279161
    vertex 10.179398197086707 0.0 6.170890479442815
    vertex 9.899066213365597 0.0 5.699776702279161
  endloop
endfacet
facet normal -0.6977357272472333 -0.0 0.716355257482469
  outer loop
    vertex 9.899066213365597 -3.9999999999999982 5.699776702279161
    vertex 9.506353092414392 0.0 5.317270994134589
    vertex 9.506353092414392 -3.9999999999999982 5.317270994134589
  endloop
endfacet
facet normal -0.6977357272472333 -0.0 0.716355257482469
  outer loop
    vertex 9.506353092414392 0.0 5.317270994134589
    vertex 9.899066213365597 -3.9999999999999982 5.699776702279161
    vertex 9.899066213365597 0.0 5.699776702279161
  endloop
endfacet
facet normal -0.4885545751769053 -0.0 0.8725333386603138
  outer loop
    vertex 9.506353092414392 -3.9999999999999982 5.317270994134589
    vertex 9.028021584436798 0.0 5.049440486898577
    vertex 9.028021584436798 -3.9999999999999982 5.049440486898577
  endloop
endfacet
facet normal -0.4885545751769053 -0.0 0.8725333386603138
  outer loop
    vertex 9.028021584436798 0.0 5.049440486898577
    vertex 9.506353092414392 -3.9999999999999982 5.317270994134589
    vertex 9.506353092414392 0.0 5.317270994134589
  endloop
endfacet
facet normal -0.24607923618287894 -0.0 0.9692497147379777
  outer loop
    vertex 9.028021584436798 -3.9999999999999982 5.049440486898577
    vertex 8.496669191221295 0.0 4.914537387028424
    vertex 8.496669191221295 -3.9999999999999982 4.914537387028424
  endloop
endfacet
facet normal -0.24607923618287894 -0.0 0.9692497147379777
  outer loop
    vertex 8.496669191221295 0.0 4.914537387028424
    vertex 9.028021584436798 -3.9999999999999982 5.049440486898577
    vertex 9.028021584436798 0.0 5.049440486898577
  endloop
endfacet
facet normal 0.013165996091844127 0.0 0.9999133245171351
  outer loop
    vertex 8.496669191221295 -3.9999999999999982 4.914537387028424
    vertex 7.948506700264176 0.0 4.921755117842364
    vertex 7.948506700264176 -3.9999999999999982 4.921755117842364
  endloop
endfacet
facet normal 0.013165996091844127 0.0 0.9999133245171351
  outer loop
    vertex 7.948506700264176 0.0 4.921755117842364
    vertex 8.496669191221295 -3.9999999999999982 4.914537387028424
    vertex 8.496669191221295 0.0 4.914537387028424
  endloop
endfacet
facet normal 0.27151398749074424 0.0 0.9624344936653487
  outer loop
    vertex 7.948506700264176 -3.9999999999999982 4.921755117842364
    vertex 7.420890479442815 0.0 5.070601802913292
    vertex 7.420890479442815 -3.9999999999999982 5.070601802913292
  endloop
endfacet
facet normal 0.27151398749074424 0.0 0.9624344936653487
  outer loop
    vertex 7.420890479442815 0.0 5.070601802913292
    vertex 7.948506700264176 -3.9999999999999982 4.921755117842364
    vertex 7.948506700264176 0.0 4.921755117842364
  endloop
endfacet
facet normal 0.5113587493402313 0.0 0.8593673425684704
  outer loop
    vertex 7.420890479442815 -3.9999999999999982 5.070601802913292
    vertex 6.949776702279162 0.0 5.3509337866344024
    vertex 6.949776702279162 -3.9999999999999982 5.3509337866344024
  endloop
endfacet
facet normal 0.5113587493402313 0.0 0.8593673425684704
  outer loop
    vertex 6.949776702279162 0.0 5.3509337866344024
    vertex 7.420890479442815 -3.9999999999999982 5.070601802913292
    vertex 7.420890479442815 0.0 5.070601802913292
  endloop
endfacet
facet normal 0.7163552574824696 0.0 0.6977357272472328
  outer loop
    vertex 6.949776702279162 0.0 5.3509337866344024
    vertex 6.567270994134589 -3.9999999999999982 5.7436469075856085
    vertex 6.949776702279162 -3.9999999999999982 5.3509337866344024
  endloop
endfacet
facet normal 0.7163552574824696 0.0 0.6977357272472328
  outer loop
    vertex 6.567270994134589 -3.9999999999999982 5.7436469075856085
    vertex 6.949776702279162 0.0 5.3509337866344024
    vertex 6.567270994134589 0.0 5.7436469075856085
  endloop
endfacet
facet normal 0.8725333386603142 0.0 0.48855457517690415
  outer loop
    vertex 6.567270994134589 0.0 5.7436469075856085
    vertex 6.299440486898578 -3.9999999999999982 6.221978415563204
    vertex 6.567270994134589 -3.9999999999999982 5.7436469075856085
  endloop
endfacet
facet normal 0.8725333386603142 0.0 0.48855457517690415
  outer loop
    vertex 6.299440486898578 -3.9999999999999982 6.221978415563204
    vertex 6.567270994134589 0.0 5.7436469075856085
    vertex 6.299440486898578 0.0 6.221978415563204
  endloop
endfacet
facet normal 0.9692497147379775 0.0 0.24607923618287952
  outer loop
    vertex 6.299440486898578 0.0 6.221978415563204
    vertex 6.164537387028424 -3.9999999999999982 6.7533308087787045
    vertex 6.299440486898578 -3.9999999999999982 6.221978415563204
  endloop
endfacet
facet normal 0.9692497147379775 0.0 0.24607923618287952
  outer loop
    vertex 6.164537387028424 -3.9999999999999982 6.7533308087787045
    vertex 6.299440486898578 0.0 6.221978415563204
    vertex 6.164537387028424 0.0 6.7533308087787045
  endloop
endfacet
facet normal 0.9999133245171351 -0.0 -0.013165996091844127
  outer loop
    vertex 6.164537387028424 0.0 6.7533308087787045
    vertex 6.171755117842364 -3.9999999999999982 7.301493299735824
    vertex 6.164537387028424 -3.9999999999999982 6.7533308087787045
  endloop
endfacet
facet normal 0.9999133245171351 -0.0 -0.013165996091844127
  outer loop
    vertex 6.171755117842364 -3.9999999999999982 7.301493299735824
    vertex 6.164537387028424 0.0 6.7533308087787045
    vertex 6.171755117842364 0.0 7.301493299735824
  endloop
endfacet
facet normal 0.9624344936653486 -0.0 -0.27151398749074473
  outer loop
    vertex 6.171755117842364 0.0 7.301493299735824
    vertex 6.320601802913294 -3.9999999999999982 7.829109520557187
    vertex 6.171755117842364 -3.9999999999999982 7.301493299735824
  endloop
endfacet
facet normal 0.9624344936653486 -0.0 -0.27151398749074473
  outer loop
    vertex 6.320601802913294 -3.9999999999999982 7.829109520557187
    vertex 6.171755117842364 0.0 7.301493299735824
    vertex 6.320601802913294 0.0 7.829109520557187
  endloop
endfacet
facet normal 0.8593673425684704 -0.0 -0.5113587493402313
  outer loop
    vertex 6.320601802913294 0.0 7.829109520557187
    vertex 6.600933786634404 -3.9999999999999982 8.300223297720839
    vertex 6.320601802913294 -3.9999999999999982 7.829109520557187
  endloop
endfacet
facet normal 0.8593673425684704 -0.0 -0.5113587493402313
  outer loop
    vertex 6.600933786634404 -3.9999999999999982 8.300223297720839
    vertex 6.320601802913294 0.0 7.829109520557187
    vertex 6.600933786634404 0.0 8.300223297720839
  endloop
endfacet
facet normal 0.697735727247232 -0.0 -0.7163552574824703
  outer loop
    vertex 6.993646907585609 0.0 8.682729005865411
    vertex 6.600933786634404 -3.9999999999999982 8.300223297720839
    vertex 6.600933786634404 0.0 8.300223297720839
  endloop
endfacet
facet normal 0.697735727247232 -0.0 -0.7163552574824703
  outer loop
    vertex 6.600933786634404 -3.9999999999999982 8.300223297720839
    vertex 6.993646907585609 0.0 8.682729005865411
    vertex 6.993646907585609 -3.9999999999999982 8.682729005865411
  endloop
endfacet
facet normal 0.48855457517690415 -0.0 -0.8725333386603142
  outer loop
    vertex 7.471978415563204 0.0 8.950559513101423
    vertex 6.993646907585609 -3.9999999999999982 8.682729005865411
    vertex 6.993646907585609 0.0 8.682729005865411
  endloop
endfacet
facet normal 0.48855457517690415 -0.0 -0.8725333386603142
  outer loop
    vertex 6.993646907585609 -3.9999999999999982 8.682729005865411
    vertex 7.471978415563204 0.0 8.950559513101423
    vertex 7.471978415563204 -3.9999999999999982 8.950559513101423
  endloop
endfacet
facet normal 0.24607923618287952 -0.0 -0.9692497147379775
  outer loop
    vertex 8.003330808778705 0.0 9.085462612971575
    vertex 7.471978415563204 -3.9999999999999982 8.950559513101423
    vertex 7.471978415563204 0.0 8.950559513101423
  endloop
endfacet
facet normal 0.24607923618287952 -0.0 -0.9692497147379775
  outer loop
    vertex 7.471978415563204 -3.9999999999999982 8.950559513101423
    vertex 8.003330808778705 0.0 9.085462612971575
    vertex 8.003330808778705 -3.9999999999999982 9.085462612971575
  endloop
endfacet
facet normal -0.013165996091844098 -0.0 -0.9999133245171352
  outer loop
    vertex 8.551493299735826 0.0 9.078244882157636
    vertex 8.003330808778705 -3.9999999999999982 9.085462612971575
    vertex 8.003330808778705 0.0 9.085462612971575
  endloop
endfacet
facet normal -0.013165996091844098 -0.0 -0.9999133245171352
  outer loop
    vertex 8.003330808778705 -3.9999999999999982 9.085462612971575
    vertex 8.551493299735826 0.0 9.078244882157636
    vertex 8.551493299735826 -3.9999999999999982 9.078244882157636
  endloop
endfacet
facet normal -0.27151398749074607 -0.0 -0.9624344936653482
  outer loop
    vertex 9.079109520557186 0.0 8.929398197086707
    vertex 8.551493299735826 -3.9999999999999982 9.078244882157636
    vertex 8.551493299735826 0.0 9.078244882157636
  endloop
endfacet
facet normal -0.27151398749074607 -0.0 -0.9624344936653482
  outer loop
    vertex 8.551493299735826 -3.9999999999999982 9.078244882157636
    vertex 9.079109520557186 0.0 8.929398197086707
    vertex 9.079109520557186 -3.9999999999999982 8.929398197086707
  endloop
endfacet
facet normal -0.13052619222005232 -0.9914448613738103 7.522541226429342e-31
  outer loop
    vertex 26.69351999471529 -7.971555764792958 51.99999999999997
    vertex 26.15 -7.900000000000001 48.0
    vertex 26.69351999471529 -7.971555764792958 48.0
  endloop
endfacet
facet normal -0.13052619222005232 -0.9914448613738103 7.522541226429342e-31
  outer loop
    vertex 26.15 -7.900000000000001 48.0
    vertex 26.69351999471529 -7.971555764792958 51.99999999999997
    vertex 26.15 -7.900000000000001 51.99999999999997
  endloop
endfacet
facet normal -0.3826834323650909 -0.9238795325112863 -7.607948465237282e-31
  outer loop
    vertex 27.199999999999996 -8.18134665205268 51.99999999999997
    vertex 26.69351999471529 -7.971555764792958 48.0
    vertex 27.199999999999996 -8.18134665205268 48.0
  endloop
endfacet
facet normal -0.3826834323650909 -0.9238795325112863 -7.607948465237282e-31
  outer loop
    vertex 26.69351999471529 -7.971555764792958 48.0
    vertex 27.199999999999996 -8.18134665205268 51.99999999999997
    vertex 26.69351999471529 -7.971555764792958 51.99999999999997
  endloop
endfacet
facet normal -0.6087614290087182 -0.793353340291237 -2.661367515384728e-18
  outer loop
    vertex 27.63492424049175 -8.515075759508251 51.99999999999997
    vertex 27.199999999999996 -8.18134665205268 48.0
    vertex 27.63492424049175 -8.515075759508251 48.0
  endloop
endfacet
facet normal -0.6087614290087182 -0.793353340291237 -2.661367515384728e-18
  outer loop
    vertex 27.199999999999996 -8.18134665205268 48.0
    vertex 27.63492424049175 -8.515075759508251 51.99999999999997
    vertex 27.199999999999996 -8.18134665205268 51.99999999999997
  endloop
endfacet
facet normal -0.7933533402912375 -0.6087614290087175 -2.66136751538533e-18
  outer loop
    vertex 27.63492424049175 -8.515075759508251 51.99999999999997
    vertex 27.968653347947317 -8.950000000000001 48.0
    vertex 27.968653347947317 -8.950000000000001 51.99999999999997
  endloop
endfacet
facet normal -0.7933533402912375 -0.6087614290087175 -2.66136751538533e-18
  outer loop
    vertex 27.968653347947317 -8.950000000000001 48.0
    vertex 27.63492424049175 -8.515075759508251 51.99999999999997
    vertex 27.63492424049175 -8.515075759508251 48.0
  endloop
endfacet
facet normal -0.9238795325112852 -0.38268343236509345 1.836721236661133e-30
  outer loop
    vertex 27.968653347947317 -8.950000000000001 51.99999999999997
    vertex 28.178444235207042 -9.456480005284709 48.0
    vertex 28.178444235207042 -9.456480005284709 51.99999999999997
  endloop
endfacet
facet normal -0.9238795325112852 -0.38268343236509345 1.836721236661133e-30
  outer loop
    vertex 28.178444235207042 -9.456480005284709 48.0
    vertex 27.968653347947317 -8.950000000000001 51.99999999999997
    vertex 27.968653347947317 -8.950000000000001 48.0
  endloop
endfacet
facet normal -0.9914448613738114 -0.1305261922200451 -6.487323854318139e-32
  outer loop
    vertex 28.178444235207042 -9.456480005284709 51.99999999999997
    vertex 28.249999999999993 -10.0 48.0
    vertex 28.249999999999993 -10.0 51.99999999999997
  endloop
endfacet
facet normal -0.9914448613738114 -0.1305261922200451 -6.487323854318139e-32
  outer loop
    vertex 28.249999999999993 -10.0 48.0
    vertex 28.178444235207042 -9.456480005284709 51.99999999999997
    vertex 28.178444235207042 -9.456480005284709 48.0
  endloop
endfacet
facet normal -0.9914448613738114 0.13052619222004475 0.0
  outer loop
    vertex 28.249999999999993 -10.0 51.99999999999997
    vertex 28.178444235207042 -10.543519994715293 48.0
    vertex 28.178444235207042 -10.543519994715293 51.99999999999997
  endloop
endfacet
facet normal -0.9914448613738114 0.13052619222004475 0.0
  outer loop
    vertex 28.178444235207042 -10.543519994715293 48.0
    vertex 28.249999999999993 -10.0 51.99999999999997
    vertex 28.249999999999993 -10.0 48.0
  endloop
endfacet
facet normal -0.9238795325112849 0.3826834323650943 1.673005560211835e-18
  outer loop
    vertex 28.178444235207042 -10.543519994715293 51.99999999999997
    vertex 27.968653347947317 -11.049999999999999 48.0
    vertex 27.968653347947317 -11.049999999999999 51.99999999999997
  endloop
endfacet
facet normal -0.9238795325112849 0.3826834323650943 1.673005560211835e-18
  outer loop
    vertex 27.968653347947317 -11.049999999999999 48.0
    vertex 28.178444235207042 -10.543519994715293 51.99999999999997
    vertex 28.178444235207042 -10.543519994715293 48.0
  endloop
endfacet
facet normal -0.7933533402912375 0.6087614290087175 -2.66136751538533e-18
  outer loop
    vertex 27.968653347947317 -11.049999999999999 51.99999999999997
    vertex 27.63492424049175 -11.484924240491749 48.0
    vertex 27.63492424049175 -11.484924240491749 51.99999999999997
  endloop
endfacet
facet normal -0.7933533402912375 0.6087614290087175 -2.66136751538533e-18
  outer loop
    vertex 27.63492424049175 -11.484924240491749 48.0
    vertex 27.968653347947317 -11.049999999999999 51.99999999999997
    vertex 27.968653347947317 -11.049999999999999 48.0
  endloop
endfacet
facet normal -0.6087614290087199 0.7933533402912358 -6.1297291878906696e-18
  outer loop
    vertex 27.199999999999996 -11.818653347947322 51.99999999999997
    vertex 27.63492424049175 -11.484924240491749 48.0
    vertex 27.199999999999996 -11.818653347947322 48.0
  endloop
endfacet
facet normal -0.6087614290087199 0.7933533402912358 -6.1297291878906696e-18
  outer loop
    vertex 27.63492424049175 -11.484924240491749 48.0
    vertex 27.199999999999996 -11.818653347947322 51.99999999999997
    vertex 27.63492424049175 -11.484924240491749 51.99999999999997
  endloop
endfacet
facet normal -0.3826834323650888 0.9238795325112873 -3.016145373584395e-31
  outer loop
    vertex 26.69351999471529 -12.028444235207042 51.99999999999997
    vertex 27.199999999999996 -11.818653347947322 48.0
    vertex 26.69351999471529 -12.028444235207042 48.0
  endloop
endfacet
facet normal -0.3826834323650888 0.9238795325112873 -3.016145373584395e-31
  outer loop
    vertex 27.199999999999996 -11.818653347947322 48.0
    vertex 26.69351999471529 -12.028444235207042 51.99999999999997
    vertex 27.199999999999996 -11.818653347947322 51.99999999999997
  endloop
endfacet
facet normal -0.13052619222005232 0.9914448613738103 7.522541226429342e-31
  outer loop
    vertex 26.15 -12.1 51.99999999999997
    vertex 26.69351999471529 -12.028444235207042 48.0
    vertex 26.15 -12.1 48.0
  endloop
endfacet
facet normal -0.13052619222005232 0.9914448613738103 7.522541226429342e-31
  outer loop
    vertex 26.69351999471529 -12.028444235207042 48.0
    vertex 26.15 -12.1 51.99999999999997
    vertex 26.69351999471529 -12.028444235207042 51.99999999999997
  endloop
endfacet
facet normal 0.13052619222005232 0.9914448613738103 7.522541226429342e-31
  outer loop
    vertex 25.606480005284705 -12.028444235207042 51.99999999999997
    vertex 26.15 -12.1 48.0
    vertex 25.606480005284705 -12.028444235207042 48.0
  endloop
endfacet
facet normal 0.13052619222005232 0.9914448613738103 7.522541226429342e-31
  outer loop
    vertex 26.15 -12.1 48.0
    vertex 25.606480005284705 -12.028444235207042 51.99999999999997
    vertex 26.15 -12.1 51.99999999999997
  endloop
endfacet
facet normal 0.382683432365089 0.9238795325112871 1.6730055602101655e-18
  outer loop
    vertex 25.099999999999998 -11.81865334794732 51.99999999999997
    vertex 25.606480005284705 -12.028444235207042 48.0
    vertex 25.099999999999998 -11.81865334794732 48.0
  endloop
endfacet
facet normal 0.382683432365089 0.9238795325112871 1.6730055602101655e-18
  outer loop
    vertex 25.606480005284705 -12.028444235207042 48.0
    vertex 25.099999999999998 -11.81865334794732 51.99999999999997
    vertex 25.606480005284705 -12.028444235207042 51.99999999999997
  endloop
endfacet
facet normal 0.6087614290087209 0.7933533402912352 8.06994157120193e-19
  outer loop
    vertex 24.665075759508248 -11.484924240491749 51.99999999999997
    vertex 25.099999999999998 -11.81865334794732 48.0
    vertex 24.665075759508248 -11.484924240491749 48.0
  endloop
endfacet
facet normal 0.6087614290087209 0.7933533402912352 8.06994157120193e-19
  outer loop
    vertex 25.099999999999998 -11.81865334794732 48.0
    vertex 24.665075759508248 -11.484924240491749 51.99999999999997
    vertex 25.099999999999998 -11.81865334794732 51.99999999999997
  endloop
endfacet
facet normal 0.7933533402912352 0.6087614290087208 3.4683616725055377e-18
  outer loop
    vertex 24.331346652052677 -11.049999999999999 48.0
    vertex 24.665075759508248 -11.484924240491749 51.99999999999997
    vertex 24.665075759508248 -11.484924240491749 48.0
  endloop
endfacet
facet normal 0.7933533402912352 0.6087614290087208 3.4683616725055377e-18
  outer loop
    vertex 24.665075759508248 -11.484924240491749 51.99999999999997
    vertex 24.331346652052677 -11.049999999999999 48.0
    vertex 24.331346652052677 -11.049999999999999 51.99999999999997
  endloop
endfacet
facet normal 0.9238795325112867 0.38268343236509 3.692501916902932e-18
  outer loop
    vertex 24.121555764792955 -10.543519994715293 48.0
    vertex 24.331346652052677 -11.049999999999999 51.99999999999997
    vertex 24.331346652052677 -11.049999999999999 48.0
  endloop
endfacet
facet normal 0.9238795325112867 0.38268343236509 3.692501916902932e-18
  outer loop
    vertex 24.331346652052677 -11.049999999999999 51.99999999999997
    vertex 24.121555764792955 -10.543519994715293 48.0
    vertex 24.121555764792955 -10.543519994715293 51.99999999999997
  endloop
endfacet
facet normal 0.9914448613738107 0.13052619222004982 -9.85522336940389e-31
  outer loop
    vertex 24.049999999999997 -10.0 48.0
    vertex 24.121555764792955 -10.543519994715293 51.99999999999997
    vertex 24.121555764792955 -10.543519994715293 48.0
  endloop
endfacet
facet normal 0.9914448613738107 0.13052619222004982 -9.85522336940389e-31
  outer loop
    vertex 24.121555764792955 -10.543519994715293 51.99999999999997
    vertex 24.049999999999997 -10.0 48.0
    vertex 24.049999999999997 -10.0 51.99999999999997
  endloop
endfacet
facet normal 0.9914448613738107 -0.13052619222004946 -9.206490983972053e-31
  outer loop
    vertex 24.121555764792955 -9.456480005284705 48.0
    vertex 24.049999999999997 -10.0 51.99999999999997
    vertex 24.049999999999997 -10.0 48.0
  endloop
endfacet
facet normal 0.9914448613738107 -0.13052619222004946 -9.206490983972053e-31
  outer loop
    vertex 24.049999999999997 -10.0 51.99999999999997
    vertex 24.121555764792955 -9.456480005284705 48.0
    vertex 24.121555764792955 -9.456480005284705 51.99999999999997
  endloop
endfacet
facet normal 0.9238795325112849 -0.3826834323650944 -1.6730055602099984e-18
  outer loop
    vertex 24.33134665205268 -8.95 48.0
    vertex 24.121555764792955 -9.456480005284705 51.99999999999997
    vertex 24.121555764792955 -9.456480005284705 48.0
  endloop
endfacet
facet normal 0.9238795325112849 -0.3826834323650944 -1.6730055602099984e-18
  outer loop
    vertex 24.121555764792955 -9.456480005284705 51.99999999999997
    vertex 24.33134665205268 -8.95 48.0
    vertex 24.33134665205268 -8.95 51.99999999999997
  endloop
endfacet
facet normal 0.7933533402912366 -0.6087614290087188 2.6613675153856377e-18
  outer loop
    vertex 24.665075759508248 -8.515075759508251 48.0
    vertex 24.33134665205268 -8.95 51.99999999999997
    vertex 24.33134665205268 -8.95 48.0
  endloop
endfacet
facet normal 0.7933533402912366 -0.6087614290087188 2.6613675153856377e-18
  outer loop
    vertex 24.33134665205268 -8.95 51.99999999999997
    vertex 24.665075759508248 -8.515075759508251 48.0
    vertex 24.665075759508248 -8.515075759508251 51.99999999999997
  endloop
endfacet
facet normal 0.6087614290087199 -0.7933533402912358 -6.1297291878906696e-18
  outer loop
    vertex 25.099999999999998 -8.181346652052678 51.99999999999997
    vertex 24.665075759508248 -8.515075759508251 48.0
    vertex 25.099999999999998 -8.181346652052678 48.0
  endloop
endfacet
facet normal 0.6087614290087199 -0.7933533402912358 -6.1297291878906696e-18
  outer loop
    vertex 24.665075759508248 -8.515075759508251 48.0
    vertex 25.099999999999998 -8.181346652052678 51.99999999999997
    vertex 24.665075759508248 -8.515075759508251 51.99999999999997
  endloop
endfacet
facet normal 0.3826834323650888 -0.9238795325112873 4.591803091652843e-31
  outer loop
    vertex 25.606480005284705 -7.971555764792958 51.99999999999997
    vertex 25.099999999999998 -8.181346652052678 48.0
    vertex 25.606480005284705 -7.971555764792958 48.0
  endloop
endfacet
facet normal 0.3826834323650888 -0.9238795325112873 4.591803091652843e-31
  outer loop
    vertex 25.099999999999998 -8.181346652052678 48.0
    vertex 25.606480005284705 -7.971555764792958 51.99999999999997
    vertex 25.099999999999998 -8.181346652052678 51.99999999999997
  endloop
endfacet
facet normal 0.13052619222005232 -0.9914448613738103 7.522541226429342e-31
  outer loop
    vertex 26.15 -7.900000000000001 51.99999999999997
    vertex 25.606480005284705 -7.971555764792958 48.0
    vertex 26.15 -7.900000000000001 48.0
  endloop
endfacet
facet normal 0.13052619222005232 -0.9914448613738103 7.522541226429342e-31
  outer loop
    vertex 25.606480005284705 -7.971555764792958 48.0
    vertex 26.15 -7.900000000000001 51.99999999999997
    vertex 25.606480005284705 -7.971555764792958 51.99999999999997
  endloop
endfacet
facet normal 0.38268343236509084 -0.9238795325112863 0.0
  outer loop
    vertex -10.193519994715288 -7.971555764792956 52.000000000000014
    vertex -10.699999999999994 -8.181346652052678 48.0
    vertex -10.193519994715288 -7.971555764792956 48.0
  endloop
endfacet
facet normal 0.38268343236509084 -0.9238795325112863 0.0
  outer loop
    vertex -10.699999999999994 -8.181346652052678 48.0
    vertex -10.193519994715288 -7.971555764792956 52.000000000000014
    vertex -10.699999999999994 -8.181346652052678 52.000000000000014
  endloop
endfacet
facet normal 0.1305261922200498 -0.9914448613738107 0.0
  outer loop
    vertex -9.649999999999995 -7.8999999999999995 52.000000000000014
    vertex -10.193519994715288 -7.971555764792956 48.0
    vertex -9.649999999999995 -7.8999999999999995 48.0
  endloop
endfacet
facet normal 0.1305261922200498 -0.9914448613738107 0.0
  outer loop
    vertex -10.193519994715288 -7.971555764792956 48.0
    vertex -9.649999999999995 -7.8999999999999995 52.000000000000014
    vertex -10.193519994715288 -7.971555764792956 52.000000000000014
  endloop
endfacet
facet normal -0.13052619222005202 -0.9914448613738105 -4.278879299269999e-31
  outer loop
    vertex -9.1064800052847 -7.9715557647929565 52.000000000000014
    vertex -9.649999999999995 -7.8999999999999995 48.0
    vertex -9.1064800052847 -7.9715557647929565 48.0
  endloop
endfacet
facet normal -0.13052619222005202 -0.9914448613738105 -4.278879299269999e-31
  outer loop
    vertex -9.649999999999995 -7.8999999999999995 48.0
    vertex -9.1064800052847 -7.9715557647929565 52.000000000000014
    vertex -9.649999999999995 -7.8999999999999995 52.000000000000014
  endloop
endfacet
facet normal -0.38268343236509006 -0.9238795325112867 1.6730055602095612e-18
  outer loop
    vertex -8.599999999999994 -8.181346652052678 52.000000000000014
    vertex -9.1064800052847 -7.9715557647929565 48.0
    vertex -8.599999999999994 -8.181346652052678 48.0
  endloop
endfacet
facet normal -0.38268343236509006 -0.9238795325112867 1.6730055602095612e-18
  outer loop
    vertex -9.1064800052847 -7.9715557647929565 48.0
    vertex -8.599999999999994 -8.181346652052678 52.000000000000014
    vertex -9.1064800052847 -7.9715557647929565 52.000000000000014
  endloop
endfacet
facet normal -0.6087614290087224 -0.7933533402912338 -3.468361672505849e-18
  outer loop
    vertex -8.165075759508245 -8.515075759508251 52.000000000000014
    vertex -8.599999999999994 -8.181346652052678 48.0
    vertex -8.165075759508245 -8.515075759508251 48.0
  endloop
endfacet
facet normal -0.6087614290087224 -0.7933533402912338 -3.468361672505849e-18
  outer loop
    vertex -8.599999999999994 -8.181346652052678 48.0
    vertex -8.165075759508245 -8.515075759508251 52.000000000000014
    vertex -8.599999999999994 -8.181346652052678 52.000000000000014
  endloop
endfacet
facet normal -0.7933533402912352 -0.6087614290087209 -2.661367515385285e-18
  outer loop
    vertex -8.165075759508245 -8.515075759508251 52.000000000000014
    vertex -7.831346652052674 -8.950000000000001 48.0
    vertex -7.831346652052674 -8.950000000000001 52.000000000000014
  endloop
endfacet
facet normal -0.7933533402912352 -0.6087614290087209 -2.661367515385285e-18
  outer loop
    vertex -7.831346652052674 -8.950000000000001 48.0
    vertex -8.165075759508245 -8.515075759508251 52.000000000000014
    vertex -8.165075759508245 -8.515075759508251 48.0
  endloop
endfacet
facet normal -0.9238795325112867 -0.38268343236509006 -1.6730055602095612e-18
  outer loop
    vertex -7.831346652052674 -8.950000000000001 52.000000000000014
    vertex -7.6215557647929515 -9.456480005284707 48.0
    vertex -7.6215557647929515 -9.456480005284707 52.000000000000014
  endloop
endfacet
facet normal -0.9238795325112867 -0.38268343236509006 -1.6730055602095612e-18
  outer loop
    vertex -7.6215557647929515 -9.456480005284707 48.0
    vertex -7.831346652052674 -8.950000000000001 52.000000000000014
    vertex -7.831346652052674 -8.950000000000001 48.0
  endloop
endfacet
facet normal -0.9914448613738103 -0.13052619222005232 -4.927611684701832e-31
  outer loop
    vertex -7.6215557647929515 -9.456480005284707 52.000000000000014
    vertex -7.5499999999999945 -10.0 48.0
    vertex -7.5499999999999945 -10.0 52.000000000000014
  endloop
endfacet
facet normal -0.9914448613738103 -0.13052619222005232 -4.927611684701832e-31
  outer loop
    vertex -7.5499999999999945 -10.0 48.0
    vertex -7.6215557647929515 -9.456480005284707 52.000000000000014
    vertex -7.6215557647929515 -9.456480005284707 48.0
  endloop
endfacet
facet normal -0.9914448613738105 0.13052619222005202 -5.576344070133666e-31
  outer loop
    vertex -7.5499999999999945 -10.0 52.000000000000014
    vertex -7.6215557647929515 -10.543519994715295 48.0
    vertex -7.6215557647929515 -10.543519994715295 52.000000000000014
  endloop
endfacet
facet normal -0.9914448613738105 0.13052619222005202 -5.576344070133666e-31
  outer loop
    vertex -7.6215557647929515 -10.543519994715295 48.0
    vertex -7.5499999999999945 -10.0 52.000000000000014
    vertex -7.5499999999999945 -10.0 48.0
  endloop
endfacet
facet normal -0.9238795325112867 0.38268343236509006 1.6730055602095612e-18
  outer loop
    vertex -7.6215557647929515 -10.543519994715295 52.000000000000014
    vertex -7.831346652052674 -11.05 48.0
    vertex -7.831346652052674 -11.05 52.000000000000014
  endloop
endfacet
facet normal -0.9238795325112867 0.38268343236509006 1.6730055602095612e-18
  outer loop
    vertex -7.831346652052674 -11.05 48.0
    vertex -7.6215557647929515 -10.543519994715295 52.000000000000014
    vertex -7.6215557647929515 -10.543519994715295 48.0
  endloop
endfacet
facet normal -0.7933533402912352 0.6087614290087209 0.0
  outer loop
    vertex -7.831346652052674 -11.05 52.000000000000014
    vertex -8.165075759508245 -11.48492424049175 48.0
    vertex -8.165075759508245 -11.48492424049175 52.000000000000014
  endloop
endfacet
facet normal -0.7933533402912352 0.6087614290087209 0.0
  outer loop
    vertex -8.165075759508245 -11.48492424049175 48.0
    vertex -7.831346652052674 -11.05 52.000000000000014
    vertex -7.831346652052674 -11.05 48.0
  endloop
endfacet
facet normal -0.6087614290087211 0.7933533402912347 3.4683616725061548e-18
  outer loop
    vertex -8.599999999999996 -11.818653347947322 52.000000000000014
    vertex -8.165075759508245 -11.48492424049175 48.0
    vertex -8.599999999999996 -11.818653347947322 48.0
  endloop
endfacet
facet normal -0.6087614290087211 0.7933533402912347 3.4683616725061548e-18
  outer loop
    vertex -8.165075759508245 -11.48492424049175 48.0
    vertex -8.599999999999996 -11.818653347947322 52.000000000000014
    vertex -8.165075759508245 -11.48492424049175 52.000000000000014
  endloop
endfacet
facet normal -0.38268343236508773 0.9238795325112875 -3.692501916902001e-18
  outer loop
    vertex -9.106480005284702 -12.028444235207044 52.000000000000014
    vertex -8.599999999999996 -11.818653347947322 48.0
    vertex -9.106480005284702 -12.028444235207044 48.0
  endloop
endfacet
facet normal -0.38268343236508773 0.9238795325112875 -3.692501916902001e-18
  outer loop
    vertex -8.599999999999996 -11.818653347947322 48.0
    vertex -9.106480005284702 -12.028444235207044 52.000000000000014
    vertex -8.599999999999996 -11.818653347947322 52.000000000000014
  endloop
endfacet
facet normal -0.13052619222005232 0.9914448613738103 -4.927611684701832e-31
  outer loop
    vertex -9.649999999999995 -12.1 52.000000000000014
    vertex -9.106480005284702 -12.028444235207044 48.0
    vertex -9.649999999999995 -12.1 48.0
  endloop
endfacet
facet normal -0.13052619222005232 0.9914448613738103 -4.927611684701832e-31
  outer loop
    vertex -9.106480005284702 -12.028444235207044 48.0
    vertex -9.649999999999995 -12.1 52.000000000000014
    vertex -9.106480005284702 -12.028444235207044 52.000000000000014
  endloop
endfacet
facet normal 0.13052619222005202 0.9914448613738105 -4.278879299269999e-31
  outer loop
    vertex -10.19351999471529 -12.028444235207044 52.000000000000014
    vertex -9.649999999999995 -12.1 48.0
    vertex -10.19351999471529 -12.028444235207044 48.0
  endloop
endfacet
facet normal 0.13052619222005202 0.9914448613738105 -4.278879299269999e-31
  outer loop
    vertex -9.649999999999995 -12.1 48.0
    vertex -10.19351999471529 -12.028444235207044 52.000000000000014
    vertex -9.649999999999995 -12.1 52.000000000000014
  endloop
endfacet
facet normal 0.38268343236509006 0.9238795325112867 1.6730055602095612e-18
  outer loop
    vertex -10.699999999999996 -11.818653347947322 52.000000000000014
    vertex -10.19351999471529 -12.028444235207044 48.0
    vertex -10.699999999999996 -11.818653347947322 48.0
  endloop
endfacet
facet normal 0.38268343236509006 0.9238795325112867 1.6730055602095612e-18
  outer loop
    vertex -10.19351999471529 -12.028444235207044 48.0
    vertex -10.699999999999996 -11.818653347947322 52.000000000000014
    vertex -10.19351999471529 -12.028444235207044 52.000000000000014
  endloop
endfacet
facet normal 0.6087614290087209 0.7933533402912352 -0.0
  outer loop
    vertex -11.134924240491745 -11.48492424049175 52.000000000000014
    vertex -10.699999999999996 -11.818653347947322 48.0
    vertex -11.134924240491745 -11.48492424049175 48.0
  endloop
endfacet
facet normal 0.6087614290087209 0.7933533402912352 -0.0
  outer loop
    vertex -10.699999999999996 -11.818653347947322 48.0
    vertex -11.134924240491745 -11.48492424049175 52.000000000000014
    vertex -10.699999999999996 -11.818653347947322 52.000000000000014
  endloop
endfacet
facet normal 0.7933533402912359 0.6087614290087195 3.025624568392554e-31
  outer loop
    vertex -11.468653347947317 -11.049999999999999 48.0
    vertex -11.134924240491745 -11.48492424049175 52.000000000000014
    vertex -11.134924240491745 -11.48492424049175 48.0
  endloop
endfacet
facet normal 0.7933533402912359 0.6087614290087195 3.025624568392554e-31
  outer loop
    vertex -11.134924240491745 -11.48492424049175 52.000000000000014
    vertex -11.468653347947317 -11.049999999999999 48.0
    vertex -11.468653347947317 -11.049999999999999 52.000000000000014
  endloop
endfacet
facet normal 0.9238795325112867 0.38268343236509006 -1.6730055602095612e-18
  outer loop
    vertex -11.678444235207039 -10.543519994715293 48.0
    vertex -11.468653347947317 -11.049999999999999 52.000000000000014
    vertex -11.468653347947317 -11.049999999999999 48.0
  endloop
endfacet
facet normal 0.9238795325112867 0.38268343236509006 -1.6730055602095612e-18
  outer loop
    vertex -11.468653347947317 -11.049999999999999 52.000000000000014
    vertex -11.678444235207039 -10.543519994715293 48.0
    vertex -11.678444235207039 -10.543519994715293 52.000000000000014
  endloop
endfacet
facet normal 0.9914448613738103 0.13052619222005232 -4.927611684701832e-31
  outer loop
    vertex -11.749999999999995 -10.0 48.0
    vertex -11.678444235207039 -10.543519994715293 52.000000000000014
    vertex -11.678444235207039 -10.543519994715293 48.0
  endloop
endfacet
facet normal 0.9914448613738103 0.13052619222005232 -4.927611684701832e-31
  outer loop
    vertex -11.678444235207039 -10.543519994715293 52.000000000000014
    vertex -11.749999999999995 -10.0 48.0
    vertex -11.749999999999995 -10.0 52.000000000000014
  endloop
endfacet
facet normal 0.9914448613738105 -0.13052619222005202 -4.278879299269999e-31
  outer loop
    vertex -11.678444235207039 -9.456480005284705 48.0
    vertex -11.749999999999995 -10.0 52.000000000000014
    vertex -11.749999999999995 -10.0 48.0
  endloop
endfacet
facet normal 0.9914448613738105 -0.13052619222005202 -4.278879299269999e-31
  outer loop
    vertex -11.749999999999995 -10.0 52.000000000000014
    vertex -11.678444235207039 -9.456480005284705 48.0
    vertex -11.678444235207039 -9.456480005284705 52.000000000000014
  endloop
endfacet
facet normal 0.9238795325112867 -0.38268343236509006 1.6730055602095612e-18
  outer loop
    vertex -11.468653347947317 -8.95 48.0
    vertex -11.678444235207039 -9.456480005284705 52.000000000000014
    vertex -11.678444235207039 -9.456480005284705 48.0
  endloop
endfacet
facet normal 0.9238795325112867 -0.38268343236509006 1.6730055602095612e-18
  outer loop
    vertex -11.678444235207039 -9.456480005284705 52.000000000000014
    vertex -11.468653347947317 -8.95 48.0
    vertex -11.468653347947317 -8.95 52.000000000000014
  endloop
endfacet
facet normal 0.7933533402912352 -0.6087614290087209 -0.0
  outer loop
    vertex -11.134924240491745 -8.51507575950825 48.0
    vertex -11.468653347947317 -8.95 52.000000000000014
    vertex -11.468653347947317 -8.95 48.0
  endloop
endfacet
facet normal 0.7933533402912352 -0.6087614290087209 -0.0
  outer loop
    vertex -11.468653347947317 -8.95 52.000000000000014
    vertex -11.134924240491745 -8.51507575950825 48.0
    vertex -11.134924240491745 -8.51507575950825 52.000000000000014
  endloop
endfacet
facet normal 0.6087614290087199 -0.7933533402912359 3.468361672505857e-18
  outer loop
    vertex -10.699999999999994 -8.181346652052678 52.000000000000014
    vertex -11.134924240491745 -8.51507575950825 48.0
    vertex -10.699999999999994 -8.181346652052678 48.0
  endloop
endfacet
facet normal 0.6087614290087199 -0.7933533402912359 3.468361672505857e-18
  outer loop
    vertex -11.134924240491745 -8.51507575950825 48.0
    vertex -10.699999999999994 -8.181346652052678 52.000000000000014
    vertex -11.134924240491745 -8.51507575950825 52.000000000000014
  endloop
endfacet
facet normal 0.0 0.0 -1.0
  outer loop
    vertex 20.15 -3.9999999999999996 48.0
    vertex 24.121555764792955 -9.456480005284705 48.0
    vertex 20.15 -20.0 48.0
  endloop
endfacet
facet normal 0.0 0.0 -1.0
  outer loop
    vertex 24.121555764792955 -9.456480005284705 48.0
    vertex 20.15 -3.9999999999999996 48.0
    vertex 24.33134665205268 -8.95 48.0
  endloop
endfacet
facet normal 0.0 0.0 -1.0
  outer loop
    vertex 24.33134665205268 -8.95 48.0
    vertex 20.15 -3.9999999999999996 48.0
    vertex 24.665075759508248 -8.515075759508251 48.0
  endloop
endfacet
facet normal 0.0 0.0 -1.0
  outer loop
    vertex 24.665075759508248 -8.515075759508251 48.0
    vertex 20.15 -3.9999999999999996 48.0
    vertex 25.099999999999998 -8.181346652052678 48.0
  endloop
endfacet
facet normal 0.0 0.0 -1.0
  outer loop
    vertex 25.099999999999998 -8.181346652052678 48.0
    vertex 20.15 -3.9999999999999996 48.0
    vertex 34.25 -3.9999999999999996 48.0
  endloop
endfacet
facet normal 0.0 0.0 -1.0
  outer loop
    vertex 20.15 -20.0 48.0
    vertex 24.121555764792955 -9.456480005284705 48.0
    vertex 24.049999999999997 -10.0 48.0
  endloop
endfacet
facet normal 0.0 0.0 -1.0
  outer loop
    vertex 25.099999999999998 -8.181346652052678 48.0
    vertex 34.25 -3.9999999999999996 48.0
    vertex 25.606480005284705 -7.971555764792958 48.0
  endloop
endfacet
facet normal 0.0 0.0 -1.0
  outer loop
    vertex 25.606480005284705 -7.971555764792958 48.0
    vertex 34.25 -3.9999999999999996 48.0
    vertex 26.15 -7.900000000000001 48.0
  endloop
endfacet
facet normal 0.0 0.0 -1.0
  outer loop
    vertex 26.15 -7.900000000000001 48.0
    vertex 34.25 -3.9999999999999996 48.0
    vertex 26.69351999471529 -7.971555764792958 48.0
  endloop
endfacet
facet normal 0.0 0.0 -1.0
  outer loop
    vertex 26.69351999471529 -7.971555764792958 48.0
    vertex 34.25 -3.9999999999999996 48.0
    vertex 27.199999999999996 -8.18134665205268 48.0
  endloop
endfacet
facet normal 0.0 0.0 -1.0
  outer loop
    vertex 27.199999999999996 -8.18134665205268 48.0
    vertex 34.25 -3.9999999999999996 48.0
    vertex 27.63492424049175 -8.515075759508251 48.0
  endloop
endfacet
facet normal 0.0 0.0 -1.0
  outer loop
    vertex 27.63492424049175 -8.515075759508251 48.0
    vertex 34.25 -3.9999999999999996 48.0
    vertex 27.968653347947317 -8.950000000000001 48.0
  endloop
endfacet
facet normal 0.0 0.0 -1.0
  outer loop
    vertex 27.968653347947317 -8.950000000000001 48.0
    vertex 34.25 -3.9999999999999996 48.0
    vertex 28.178444235207042 -9.456480005284709 48.0
  endloop
endfacet
facet normal 0.0 0.0 -1.0
  outer loop
    vertex 28.178444235207042 -9.456480005284709 48.0
    vertex 34.25 -3.9999999999999996 48.0
    vertex 28.249999999999993 -10.0 48.0
  endloop
endfacet
facet normal 0.0 0.0 -1.0
  outer loop
    vertex 20.15 -20.0 48.0
    vertex 24.665075759508248 -11.484924240491749 48.0
    vertex 34.25 -20.0 48.0
  endloop
endfacet
facet normal 0.0 0.0 -1.0
  outer loop
    vertex 24.665075759508248 -11.484924240491749 48.0
    vertex 20.15 -20.0 48.0
    vertex 24.331346652052677 -11.049999999999999 48.0
  endloop
endfacet
facet normal 0.0 0.0 -1.0
  outer loop
    vertex 24.331346652052677 -11.049999999999999 48.0
    vertex 20.15 -20.0 48.0
    vertex 24.121555764792955 -10.543519994715293 48.0
  endloop
endfacet
facet normal 0.0 0.0 -1.0
  outer loop
    vertex 24.121555764792955 -10.543519994715293 48.0
    vertex 20.15 -20.0 48.0
    vertex 24.049999999999997 -10.0 48.0
  endloop
endfacet
facet normal 0.0 0.0 -1.0
  outer loop
    vertex 34.25 -20.0 48.0
    vertex 24.665075759508248 -11.484924240491749 48.0
    vertex 25.099999999999998 -11.81865334794732 48.0
  endloop
endfacet
facet normal 0.0 0.0 -1.0
  outer loop
    vertex 34.25 -20.0 48.0
    vertex 25.099999999999998 -11.81865334794732 48.0
    vertex 25.606480005284705 -12.028444235207042 48.0
  endloop
endfacet
facet normal 0.0 0.0 -1.0
  outer loop
    vertex 34.25 -20.0 48.0
    vertex 25.606480005284705 -12.028444235207042 48.0
    vertex 26.15 -12.1 48.0
  endloop
endfacet
facet normal 0.0 0.0 -1.0
  outer loop
    vertex 34.25 -20.0 48.0
    vertex 26.15 -12.1 48.0
    vertex 26.69351999471529 -12.028444235207042 48.0
  endloop
endfacet
facet normal 0.0 0.0 -1.0
  outer loop
    vertex 34.25 -20.0 48.0
    vertex 26.69351999471529 -12.028444235207042 48.0
    vertex 27.199999999999996 -11.818653347947322 48.0
  endloop
endfacet
facet normal 0.0 0.0 -1.0
  outer loop
    vertex 34.25 -20.0 48.0
    vertex 27.199999999999996 -11.818653347947322 48.0
    vertex 27.63492424049175 -11.484924240491749 48.0
  endloop
endfacet
facet normal 0.0 0.0 -1.0
  outer loop
    vertex 34.25 -20.0 48.0
    vertex 27.63492424049175 -11.484924240491749 48.0
    vertex 27.968653347947317 -11.049999999999999 48.0
  endloop
endfacet
facet normal 0.0 0.0 -1.0
  outer loop
    vertex 34.25 -20.0 48.0
    vertex 27.968653347947317 -11.049999999999999 48.0
    vertex 28.178444235207042 -10.543519994715293 48.0
  endloop
endfacet
facet normal 0.0 0.0 -1.0
  outer loop
    vertex 34.25 -20.0 48.0
    vertex 28.178444235207042 -10.543519994715293 48.0
    vertex 28.249999999999993 -10.0 48.0
  endloop
endfacet
facet normal 0.0 0.0 -1.0
  outer loop
    vertex 34.25 -20.0 48.0
    vertex 28.249999999999993 -10.0 48.0
    vertex 34.25 -3.9999999999999996 48.0
  endloop
endfacet
facet normal 0.0 -1.0 0.0
  outer loop
    vertex 20.15 -3.9999999999999996 48.0
    vertex 16.5 -3.9999999999999996 0.0
    vertex 34.25 -3.9999999999999996 48.0
  endloop
endfacet
facet normal 0.0 0.0 -1.0
  outer loop
    vertex 16.15 -3.9999999999999996 48.0
    vertex 0.3496366593263994 -20.000000000000004 48.0
    vertex 0.3496366593263991 -3.9999999999999996 48.0
  endloop
endfacet
facet normal 0.0 0.0 -1.0
  outer loop
    vertex 0.3496366593263994 -20.000000000000004 48.0
    vertex 16.15 -3.9999999999999996 48.0
    vertex 16.15 -19.999999999999996 48.0
  endloop
endfacet
facet normal -0.0 1.0 -0.0
  outer loop
    vertex 0.0 0.0 0.0
    vertex 7.420890479442815 0.0 5.070601802913292
    vertex 16.5 0.0 0.0
  endloop
endfacet
facet normal -0.0 1.0 -0.0
  outer loop
    vertex 7.420890479442815 0.0 5.070601802913292
    vertex 0.0 0.0 0.0
    vertex 6.949776702279162 0.0 5.3509337866344024
  endloop
endfacet
facet normal -0.0 1.0 -0.0
  outer loop
    vertex 6.949776702279162 0.0 5.3509337866344024
    vertex 0.0 0.0 0.0
    vertex 6.567270994134589 0.0 5.7436469075856085
  endloop
endfacet
facet normal -0.0 1.0 -0.0
  outer loop
    vertex 6.567270994134589 0.0 5.7436469075856085
    vertex 0.0 0.0 0.0
    vertex -17.749999999999996 0.0 48.0
  endloop
endfacet
facet normal -0.0 1.0 -0.0
  outer loop
    vertex 16.5 0.0 0.0
    vertex 7.420890479442815 0.0 5.070601802913292
    vertex 7.948506700264176 0.0 4.921755117842364
  endloop
endfacet
facet normal -0.0 1.0 -0.0
  outer loop
    vertex 16.5 0.0 0.0
    vertex 7.948506700264176 0.0 4.921755117842364
    vertex 8.496669191221295 0.0 4.914537387028424
  endloop
endfacet
facet normal -0.0 1.0 -0.0
  outer loop
    vertex 6.567270994134589 0.0 5.7436469075856085
    vertex -17.749999999999996 0.0 48.0
    vertex 6.299440486898578 0.0 6.221978415563204
  endloop
endfacet
facet normal -0.0 1.0 -0.0
  outer loop
    vertex 6.299440486898578 0.0 6.221978415563204
    vertex -17.749999999999996 0.0 48.0
    vertex 6.164537387028424 0.0 6.7533308087787045
  endloop
endfacet
facet normal -0.0 1.0 -0.0
  outer loop
    vertex 6.164537387028424 0.0 6.7533308087787045
    vertex -17.749999999999996 0.0 48.0
    vertex 6.171755117842364 0.0 7.301493299735824
  endloop
endfacet
facet normal -0.0 1.0 -0.0
  outer loop
    vertex 6.171755117842364 0.0 7.301493299735824
    vertex -17.749999999999996 0.0 48.0
    vertex 6.320601802913294 0.0 7.829109520557187
  endloop
endfacet
facet normal -0.0 1.0 -0.0
  outer loop
    vertex 6.320601802913294 0.0 7.829109520557187
    vertex -17.749999999999996 0.0 48.0
    vertex 6.600933786634404 0.0 8.300223297720839
  endloop
endfacet
facet normal -0.0 1.0 -0.0
  outer loop
    vertex 6.600933786634404 0.0 8.300223297720839
    vertex -17.749999999999996 0.0 48.0
    vertex 6.993646907585609 0.0 8.682729005865411
  endloop
endfacet
facet normal -0.0 1.0 -0.0
  outer loop
    vertex 6.993646907585609 0.0 8.682729005865411
    vertex -17.749999999999996 0.0 48.0
    vertex 7.471978415563204 0.0 8.950559513101423
  endloop
endfacet
facet normal -0.0 1.0 -0.0
  outer loop
    vertex 7.471978415563204 0.0 8.950559513101423
    vertex -17.749999999999996 0.0 48.0
    vertex 8.003330808778705 0.0 9.085462612971575
  endloop
endfacet
facet normal -0.0 1.0 -0.0
  outer loop
    vertex 16.5 0.0 0.0
    vertex 10.179398197086707 0.0 6.170890479442815
    vertex 34.25 0.0 48.0
  endloop
endfacet
facet normal -0.0 1.0 -0.0
  outer loop
    vertex 10.179398197086707 0.0 6.170890479442815
    vertex 16.5 0.0 0.0
    vertex 9.899066213365597 0.0 5.699776702279161
  endloop
endfacet
facet normal -0.0 1.0 -0.0
  outer loop
    vertex 9.899066213365597 0.0 5.699776702279161
    vertex 16.5 0.0 0.0
    vertex 9.506353092414392 0.0 5.317270994134589
  endloop
endfacet
facet normal -0.0 1.0 -0.0
  outer loop
    vertex 9.506353092414392 0.0 5.317270994134589
    vertex 16.5 0.0 0.0
    vertex 9.028021584436798 0.0 5.049440486898577
  endloop
endfacet
facet normal -0.0 1.0 -0.0
  outer loop
    vertex 9.028021584436798 0.0 5.049440486898577
    vertex 16.5 0.0 0.0
    vertex 8.496669191221295 0.0 4.914537387028424
  endloop
endfacet
facet normal -0.0 1.0 -0.0
  outer loop
    vertex 34.25 0.0 48.0
    vertex 10.179398197086707 0.0 6.170890479442815
    vertex 10.328244882157636 0.0 6.698506700264176
  endloop
endfacet
facet normal -0.0 1.0 -0.0
  outer loop
    vertex 34.25 0.0 48.0
    vertex 10.328244882157636 0.0 6.698506700264176
    vertex 10.335462612971577 0.0 7.2466691912212955
  endloop
endfacet
facet normal -0.0 1.0 -0.0
  outer loop
    vertex 34.25 0.0 48.0
    vertex 10.335462612971577 0.0 7.2466691912212955
    vertex 10.200559513101423 0.0 7.7780215844367975
  endloop
endfacet
facet normal -0.0 1.0 -0.0
  outer loop
    vertex 34.25 0.0 48.0
    vertex 10.200559513101423 0.0 7.7780215844367975
    vertex 9.932729005865411 0.0 8.256353092414392
  endloop
endfacet
facet normal -0.0 1.0 -0.0
  outer loop
    vertex 34.25 0.0 48.0
    vertex 9.932729005865411 0.0 8.256353092414392
    vertex 9.55022329772084 0.0 8.649066213365597
  endloop
endfacet
facet normal -0.0 1.0 -0.0
  outer loop
    vertex 34.25 0.0 48.0
    vertex 9.55022329772084 0.0 8.649066213365597
    vertex 9.079109520557186 0.0 8.929398197086707
  endloop
endfacet
facet normal -0.0 1.0 -0.0
  outer loop
    vertex 34.25 0.0 48.0
    vertex 9.079109520557186 0.0 8.929398197086707
    vertex 8.551493299735826 0.0 9.078244882157636
  endloop
endfacet
facet normal -0.0 1.0 -0.0
  outer loop
    vertex 34.25 0.0 48.0
    vertex 8.551493299735826 0.0 9.078244882157636
    vertex 8.003330808778705 0.0 9.085462612971575
  endloop
endfacet
facet normal -0.0 1.0 -0.0
  outer loop
    vertex 34.25 0.0 48.0
    vertex 8.003330808778705 0.0 9.085462612971575
    vertex -17.749999999999996 0.0 48.0
  endloop
endfacet
facet normal -0.0 1.0 -0.0
  outer loop
    vertex 34.25 0.0 48.0
    vertex -17.749999999999996 0.0 48.0
    vertex -17.749999999999996 0.0 51.99999999999999
  endloop
endfacet
facet normal -0.0 1.0 -0.0
  outer loop
    vertex 34.25 0.0 48.0
    vertex -17.749999999999996 0.0 51.99999999999999
    vertex 34.25 0.0 51.99999999999999
  endloop
endfacet
facet normal 0.9379254195245927 -0.0 -0.3468370040950316
  outer loop
    vertex 16.5 0.0 0.0
    vertex 34.25 -3.9999999999999996 48.0
    vertex 16.5 -3.9999999999999996 0.0
  endloop
endfacet
facet normal 0.9379254195245927 -0.0 -0.3468370040950316
  outer loop
    vertex 34.25 -3.9999999999999996 48.0
    vertex 16.5 0.0 0.0
    vertex 34.25 0.0 48.0
  endloop
endfacet
facet normal 0.9971213106268618 -0.0 -0.0758227663289176
  outer loop
    vertex 20.15 -3.9999999999999996 48.0
    vertex 20.15 -20.0 48.0
    vertex 16.5 -3.9999999999999996 0.0
  endloop
endfacet
facet normal -0.0 -0.0 1.0
  outer loop
    vertex -17.749999999999996 -20.0 51.99999999999999
    vertex -11.468653347947317 -11.049999999999999 52.000000000000014
    vertex -17.749999999999996 0.0 51.99999999999999
  endloop
endfacet
facet normal -0.0 -0.0 1.0
  outer loop
    vertex -11.468653347947317 -11.049999999999999 52.000000000000014
    vertex -17.749999999999996 -20.0 51.99999999999999
    vertex -11.134924240491745 -11.48492424049175 52.000000000000014
  endloop
endfacet
facet normal -0.0 -0.0 1.0
  outer loop
    vertex -11.134924240491745 -11.48492424049175 52.000000000000014
    vertex -17.749999999999996 -20.0 51.99999999999999
    vertex -10.699999999999996 -11.818653347947322 52.000000000000014
  endloop
endfacet
facet normal -0.0 -0.0 1.0
  outer loop
    vertex -10.699999999999996 -11.818653347947322 52.000000000000014
    vertex -17.749999999999996 -20.0 51.99999999999999
    vertex -10.19351999471529 -12.028444235207044 52.000000000000014
  endloop
endfacet
facet normal -0.0 -0.0 1.0
  outer loop
    vertex -10.19351999471529 -12.028444235207044 52.000000000000014
    vertex -17.749999999999996 -20.0 51.99999999999999
    vertex 34.25 -20.0 51.99999999999999
  endloop
endfacet
facet normal -0.0 -0.0 1.0
  outer loop
    vertex -17.749999999999996 0.0 51.99999999999999
    vertex -11.468653347947317 -11.049999999999999 52.000000000000014
    vertex -11.678444235207039 -10.543519994715293 52.000000000000014
  endloop
endfacet
facet normal -0.0 -0.0 1.0
  outer loop
    vertex -17.749999999999996 0.0 51.99999999999999
    vertex -11.678444235207039 -10.543519994715293 52.000000000000014
    vertex -11.749999999999995 -10.0 52.000000000000014
  endloop
endfacet
facet normal -0.0 -0.0 1.0
  outer loop
    vertex -10.19351999471529 -12.028444235207044 52.000000000000014
    vertex 34.25 -20.0 51.99999999999999
    vertex -9.649999999999995 -12.1 52.000000000000014
  endloop
endfacet
facet normal -0.0 -0.0 1.0
  outer loop
    vertex -9.649999999999995 -12.1 52.000000000000014
    vertex 34.25 -20.0 51.99999999999999
    vertex -9.106480005284702 -12.028444235207044 52.000000000000014
  endloop
endfacet
facet normal -0.0 -0.0 1.0
  outer loop
    vertex -9.106480005284702 -12.028444235207044 52.000000000000014
    vertex 34.25 -20.0 51.99999999999999
    vertex -8.599999999999996 -11.818653347947322 52.000000000000014
  endloop
endfacet
facet normal -0.0 -0.0 1.0
  outer loop
    vertex -8.599999999999996 -11.818653347947322 52.000000000000014
    vertex 34.25 -20.0 51.99999999999999
    vertex -8.165075759508245 -11.48492424049175 52.000000000000014
  endloop
endfacet
facet normal -0.0 -0.0 1.0
  outer loop
    vertex -8.165075759508245 -11.48492424049175 52.000000000000014
    vertex 34.25 -20.0 51.99999999999999
    vertex -7.831346652052674 -11.05 52.000000000000014
  endloop
endfacet
facet normal -0.0 -0.0 1.0
  outer loop
    vertex -7.831346652052674 -11.05 52.000000000000014
    vertex 34.25 -20.0 51.99999999999999
    vertex -7.6215557647929515 -10.543519994715295 52.000000000000014
  endloop
endfacet
facet normal -0.0 -0.0 1.0
  outer loop
    vertex -7.6215557647929515 -10.543519994715295 52.000000000000014
    vertex 34.25 -20.0 51.99999999999999
    vertex -7.5499999999999945 -10.0 52.000000000000014
  endloop
endfacet
facet normal -0.0 -0.0 1.0
  outer loop
    vertex -7.5499999999999945 -10.0 52.000000000000014
    vertex 34.25 -20.0 51.99999999999999
    vertex 24.665075759508248 -11.484924240491749 51.99999999999997
  endloop
endfacet
facet normal -0.0 -0.0 1.0
  outer loop
    vertex -7.5499999999999945 -10.0 52.000000000000014
    vertex 24.665075759508248 -11.484924240491749 51.99999999999997
    vertex 24.331346652052677 -11.049999999999999 51.99999999999997
  endloop
endfacet
facet normal -0.0 -0.0 1.0
  outer loop
    vertex -7.5499999999999945 -10.0 52.000000000000014
    vertex 24.331346652052677 -11.049999999999999 51.99999999999997
    vertex 24.121555764792955 -10.543519994715293 51.99999999999997
  endloop
endfacet
facet normal -0.0 -0.0 1.0
  outer loop
    vertex -7.5499999999999945 -10.0 52.000000000000014
    vertex 24.121555764792955 -10.543519994715293 51.99999999999997
    vertex 24.049999999999997 -10.0 51.99999999999997
  endloop
endfacet
facet normal -0.0 -0.0 1.0
  outer loop
    vertex 24.665075759508248 -11.484924240491749 51.99999999999997
    vertex 34.25 -20.0 51.99999999999999
    vertex 25.099999999999998 -11.81865334794732 51.99999999999997
  endloop
endfacet
facet normal -0.0 -0.0 1.0
  outer loop
    vertex 25.099999999999998 -11.81865334794732 51.99999999999997
    vertex 34.25 -20.0 51.99999999999999
    vertex 25.606480005284705 -12.028444235207042 51.99999999999997
  endloop
endfacet
facet normal -0.0 -0.0 1.0
  outer loop
    vertex 25.606480005284705 -12.028444235207042 51.99999999999997
    vertex 34.25 -20.0 51.99999999999999
    vertex 26.15 -12.1 51.99999999999997
  endloop
endfacet
facet normal -0.0 -0.0 1.0
  outer loop
    vertex 26.15 -12.1 51.99999999999997
    vertex 34.25 -20.0 51.99999999999999
    vertex 26.69351999471529 -12.028444235207042 51.99999999999997
  endloop
endfacet
facet normal -0.0 -0.0 1.0
  outer loop
    vertex 26.69351999471529 -12.028444235207042 51.99999999999997
    vertex 34.25 -20.0 51.99999999999999
    vertex 27.199999999999996 -11.818653347947322 51.99999999999997
  endloop
endfacet
facet normal -0.0 -0.0 1.0
  outer loop
    vertex 27.199999999999996 -11.818653347947322 51.99999999999997
    vertex 34.25 -20.0 51.99999999999999
    vertex 27.63492424049175 -11.484924240491749 51.99999999999997
  endloop
endfacet
facet normal -0.0 -0.0 1.0
  outer loop
    vertex 27.63492424049175 -11.484924240491749 51.99999999999997
    vertex 34.25 -20.0 51.99999999999999
    vertex 27.968653347947317 -11.049999999999999 51.99999999999997
  endloop
endfacet
facet normal -0.0 -0.0 1.0
  outer loop
    vertex 27.968653347947317 -11.049999999999999 51.99999999999997
    vertex 34.25 -20.0 51.99999999999999
    vertex 28.178444235207042 -10.543519994715293 51.99999999999997
  endloop
endfacet
facet normal -0.0 -0.0 1.0
  outer loop
    vertex 28.178444235207042 -10.543519994715293 51.99999999999997
    vertex 34.25 -20.0 51.99999999999999
    vertex 28.249999999999993 -10.0 51.99999999999997
  endloop
endfacet
facet normal -0.0 -0.0 1.0
  outer loop
    vertex -17.749999999999996 0.0 51.99999999999999
    vertex -10.193519994715288 -7.971555764792956 52.000000000000014
    vertex 34.25 0.0 51.99999999999999
  endloop
endfacet
facet normal -0.0 -0.0 1.0
  outer loop
    vertex -10.193519994715288 -7.971555764792956 52.000000000000014
    vertex -17.749999999999996 0.0 51.99999999999999
    vertex -10.699999999999994 -8.181346652052678 52.000000000000014
  endloop
endfacet
facet normal -0.0 -0.0 1.0
  outer loop
    vertex -10.699999999999994 -8.181346652052678 52.000000000000014
    vertex -17.749999999999996 0.0 51.99999999999999
    vertex -11.134924240491745 -8.51507575950825 52.000000000000014
  endloop
endfacet
facet normal -0.0 -0.0 1.0
  outer loop
    vertex -11.134924240491745 -8.51507575950825 52.000000000000014
    vertex -17.749999999999996 0.0 51.99999999999999
    vertex -11.468653347947317 -8.95 52.000000000000014
  endloop
endfacet
facet normal -0.0 -0.0 1.0
  outer loop
    vertex -11.468653347947317 -8.95 52.000000000000014
    vertex -17.749999999999996 0.0 51.99999999999999
    vertex -11.678444235207039 -9.456480005284705 52.000000000000014
  endloop
endfacet
facet normal -0.0 -0.0 1.0
  outer loop
    vertex -11.678444235207039 -9.456480005284705 52.000000000000014
    vertex -17.749999999999996 0.0 51.99999999999999
    vertex -11.749999999999995 -10.0 52.000000000000014
  endloop
endfacet
facet normal -0.0 -0.0 1.0
  outer loop
    vertex 34.25 0.0 51.99999999999999
    vertex -10.193519994715288 -7.971555764792956 52.000000000000014
    vertex -9.649999999999995 -7.8999999999999995 52.000000000000014
  endloop
endfacet
facet normal -0.0 -0.0 1.0
  outer loop
    vertex 34.25 0.0 51.99999999999999
    vertex -9.649999999999995 -7.8999999999999995 52.000000000000014
    vertex -9.1064800052847 -7.9715557647929565 52.000000000000014
  endloop
endfacet
facet normal -0.0 -0.0 1.0
  outer loop
    vertex 34.25 0.0 51.99999999999999
    vertex -9.1064800052847 -7.9715557647929565 52.000000000000014
    vertex -8.599999999999994 -8.181346652052678 52.000000000000014
  endloop
endfacet
facet normal -0.0 -0.0 1.0
  outer loop
    vertex 34.25 0.0 51.99999999999999
    vertex -8.599999999999994 -8.181346652052678 52.000000000000014
    vertex -8.165075759508245 -8.515075759508251 52.000000000000014
  endloop
endfacet
facet normal -0.0 -0.0 1.0
  outer loop
    vertex 34.25 0.0 51.99999999999999
    vertex -8.165075759508245 -8.515075759508251 52.000000000000014
    vertex -7.831346652052674 -8.950000000000001 52.000000000000014
  endloop
endfacet
facet normal -0.0 -0.0 1.0
  outer loop
    vertex 34.25 0.0 51.99999999999999
    vertex -7.831346652052674 -8.950000000000001 52.000000000000014
    vertex -7.6215557647929515 -9.456480005284707 52.000000000000014
  endloop
endfacet
facet normal -0.0 -0.0 1.0
  outer loop
    vertex 34.25 0.0 51.99999999999999
    vertex -7.6215557647929515 -9.456480005284707 52.000000000000014
    vertex -7.5499999999999945 -10.0 52.000000000000014
  endloop
endfacet
facet normal -0.0 -0.0 1.0
  outer loop
    vertex 34.25 0.0 51.99999999999999
    vertex -7.5499999999999945 -10.0 52.000000000000014
    vertex 24.665075759508248 -8.515075759508251 51.99999999999997
  endloop
endfacet
facet normal -0.0 -0.0 1.0
  outer loop
    vertex 24.665075759508248 -8.515075759508251 51.99999999999997
    vertex -7.5499999999999945 -10.0 52.000000000000014
    vertex 24.33134665205268 -8.95 51.99999999999997
  endloop
endfacet
facet normal -0.0 -0.0 1.0
  outer loop
    vertex 24.33134665205268 -8.95 51.99999999999997
    vertex -7.5499999999999945 -10.0 52.000000000000014
    vertex 24.121555764792955 -9.456480005284705 51.99999999999997
  endloop
endfacet
facet normal -0.0 -0.0 1.0
  outer loop
    vertex 24.121555764792955 -9.456480005284705 51.99999999999997
    vertex -7.5499999999999945 -10.0 52.000000000000014
    vertex 24.049999999999997 -10.0 51.99999999999997
  endloop
endfacet
facet normal -0.0 -0.0 1.0
  outer loop
    vertex 34.25 0.0 51.99999999999999
    vertex 24.665075759508248 -8.515075759508251 51.99999999999997
    vertex 25.099999999999998 -8.181346652052678 51.99999999999997
  endloop
endfacet
facet normal -0.0 -0.0 1.0
  outer loop
    vertex 34.25 0.0 51.99999999999999
    vertex 25.099999999999998 -8.181346652052678 51.99999999999997
    vertex 25.606480005284705 -7.971555764792958 51.99999999999997
  endloop
endfacet
facet normal -0.0 -0.0 1.0
  outer loop
    vertex 34.25 0.0 51.99999999999999
    vertex 25.606480005284705 -7.971555764792958 51.99999999999997
    vertex 26.15 -7.900000000000001 51.99999999999997
  endloop
endfacet
facet normal -0.0 -0.0 1.0
  outer loop
    vertex 34.25 0.0 51.99999999999999
    vertex 26.15 -7.900000000000001 51.99999999999997
    vertex 26.69351999471529 -7.971555764792958 51.99999999999997
  endloop
endfacet
facet normal -0.0 -0.0 1.0
  outer loop
    vertex 34.25 0.0 51.99999999999999
    vertex 26.69351999471529 -7.971555764792958 51.99999999999997
    vertex 27.199999999999996 -8.18134665205268 51.99999999999997
  endloop
endfacet
facet normal -0.0 -0.0 1.0
  outer loop
    vertex 34.25 0.0 51.99999999999999
    vertex 27.199999999999996 -8.18134665205268 51.99999999999997
    vertex 27.63492424049175 -8.515075759508251 51.99999999999997
  endloop
endfacet
facet normal -0.0 -0.0 1.0
  outer loop
    vertex 34.25 0.0 51.99999999999999
    vertex 27.63492424049175 -8.515075759508251 51.99999999999997
    vertex 27.968653347947317 -8.950000000000001 51.99999999999997
  endloop
endfacet
facet normal -0.0 -0.0 1.0
  outer loop
    vertex 34.25 0.0 51.99999999999999
    vertex 27.968653347947317 -8.950000000000001 51.99999999999997
    vertex 28.178444235207042 -9.456480005284709 51.99999999999997
  endloop
endfacet
facet normal -0.0 -0.0 1.0
  outer loop
    vertex 34.25 0.0 51.99999999999999
    vertex 28.178444235207042 -9.456480005284709 51.99999999999997
    vertex 28.249999999999993 -10.0 51.99999999999997
  endloop
endfacet
facet normal -0.0 -0.0 1.0
  outer loop
    vertex 34.25 0.0 51.99999999999999
    vertex 28.249999999999993 -10.0 51.99999999999997
    vertex 34.25 -20.0 51.99999999999999
  endloop
endfacet
facet normal 1.0 0.0 0.0
  outer loop
    vertex 34.25 -3.9999999999999996 48.0
    vertex 34.25 -20.0 51.99999999999999
    vertex 34.25 -20.0 48.0
  endloop
endfacet
facet normal 1.0 0.0 0.0
  outer loop
    vertex 34.25 -20.0 51.99999999999999
    vertex 34.25 -3.9999999999999996 48.0
    vertex 34.25 0.0 51.99999999999999
  endloop
endfacet
facet normal 1.0 0.0 0.0
  outer loop
    vertex 34.25 0.0 51.99999999999999
    vertex 34.25 -3.9999999999999996 48.0
    vertex 34.25 0.0 48.0
  endloop
endfacet
facet normal -0.9971213106268618 0.0 0.07582276632891753
  outer loop
    vertex 12.500000000000002 -3.9999999999999996 0.0
    vertex 16.15 -19.999999999999996 48.0
    vertex 16.15 -3.9999999999999996 48.0
  endloop
endfacet
facet normal 0.0 -1.0 0.0
  outer loop
    vertex 12.500000000000002 -3.9999999999999996 0.0
    vertex 9.506353092414392 -3.9999999999999982 5.317270994134589
    vertex 3.9999999999999996 -3.9999999999999996 0.0
  endloop
endfacet
facet normal 0.0 -1.0 0.0
  outer loop
    vertex 9.506353092414392 -3.9999999999999982 5.317270994134589
    vertex 12.500000000000002 -3.9999999999999996 0.0
    vertex 9.899066213365597 -3.9999999999999982 5.699776702279161
  endloop
endfacet
facet normal 0.0 -1.0 0.0
  outer loop
    vertex 9.899066213365597 -3.9999999999999982 5.699776702279161
    vertex 12.500000000000002 -3.9999999999999996 0.0
    vertex 10.179398197086707 -3.9999999999999982 6.170890479442815
  endloop
endfacet
facet normal 0.0 -1.0 0.0
  outer loop
    vertex 10.179398197086707 -3.9999999999999982 6.170890479442815
    vertex 12.500000000000002 -3.9999999999999996 0.0
    vertex 10.328244882157636 -3.9999999999999982 6.698506700264176
  endloop
endfacet
facet normal 0.0 -1.0 0.0
  outer loop
    vertex 10.328244882157636 -3.9999999999999982 6.698506700264176
    vertex 12.500000000000002 -3.9999999999999996 0.0
    vertex 16.15 -3.9999999999999996 48.0
  endloop
endfacet
facet normal 0.0 -1.0 0.0
  outer loop
    vertex 3.9999999999999996 -3.9999999999999996 0.0
    vertex 9.506353092414392 -3.9999999999999982 5.317270994134589
    vertex 9.028021584436798 -3.9999999999999982 5.049440486898577
  endloop
endfacet
facet normal 0.0 -1.0 0.0
  outer loop
    vertex 3.9999999999999996 -3.9999999999999996 0.0
    vertex 9.028021584436798 -3.9999999999999982 5.049440486898577
    vertex 8.496669191221295 -3.9999999999999982 4.914537387028424
  endloop
endfacet
facet normal 0.0 -1.0 0.0
  outer loop
    vertex 10.328244882157636 -3.9999999999999982 6.698506700264176
    vertex 16.15 -3.9999999999999996 48.0
    vertex 10.335462612971577 -3.9999999999999982 7.2466691912212955
  endloop
endfacet
facet normal 0.0 -1.0 0.0
  outer loop
    vertex 10.335462612971577 -3.9999999999999982 7.2466691912212955
    vertex 16.15 -3.9999999999999996 48.0
    vertex 10.200559513101423 -3.9999999999999982 7.7780215844367975
  endloop
endfacet
facet normal 0.0 -1.0 0.0
  outer loop
    vertex 10.200559513101423 -3.9999999999999982 7.7780215844367975
    vertex 16.15 -3.9999999999999996 48.0
    vertex 9.932729005865411 -3.9999999999999982 8.256353092414392
  endloop
endfacet
facet normal 0.0 -1.0 0.0
  outer loop
    vertex 9.932729005865411 -3.9999999999999982 8.256353092414392
    vertex 16.15 -3.9999999999999996 48.0
    vertex 9.55022329772084 -3.9999999999999982 8.649066213365597
  endloop
endfacet
facet normal 0.0 -1.0 0.0
  outer loop
    vertex 9.55022329772084 -3.9999999999999982 8.649066213365597
    vertex 16.15 -3.9999999999999996 48.0
    vertex 9.079109520557186 -3.9999999999999982 8.929398197086707
  endloop
endfacet
facet normal 0.0 -1.0 0.0
  outer loop
    vertex 9.079109520557186 -3.9999999999999982 8.929398197086707
    vertex 16.15 -3.9999999999999996 48.0
    vertex 8.551493299735826 -3.9999999999999982 9.078244882157636
  endloop
endfacet
facet normal 0.0 -1.0 0.0
  outer loop
    vertex 8.551493299735826 -3.9999999999999982 9.078244882157636
    vertex 16.15 -3.9999999999999996 48.0
    vertex 8.003330808778705 -3.9999999999999982 9.085462612971575
  endloop
endfacet
facet normal 0.0 -1.0 0.0
  outer loop
    vertex 3.9999999999999996 -3.9999999999999996 0.0
    vertex 6.164537387028424 -3.9999999999999982 6.7533308087787045
    vertex 0.3496366593263991 -3.9999999999999996 48.0
  endloop
endfacet
facet normal 0.0 -1.0 0.0
  outer loop
    vertex 6.164537387028424 -3.9999999999999982 6.7533308087787045
    vertex 3.9999999999999996 -3.9999999999999996 0.0
    vertex 6.299440486898578 -3.9999999999999982 6.221978415563204
  endloop
endfacet
facet normal 0.0 -1.0 0.0
  outer loop
    vertex 6.299440486898578 -3.9999999999999982 6.221978415563204
    vertex 3.9999999999999996 -3.9999999999999996 0.0
    vertex 6.567270994134589 -3.9999999999999982 5.7436469075856085
  endloop
endfacet
facet normal 0.0 -1.0 0.0
  outer loop
    vertex 6.567270994134589 -3.9999999999999982 5.7436469075856085
    vertex 3.9999999999999996 -3.9999999999999996 0.0
    vertex 6.949776702279162 -3.9999999999999982 5.3509337866344024
  endloop
endfacet
facet normal 0.0 -1.0 0.0
  outer loop
    vertex 6.949776702279162 -3.9999999999999982 5.3509337866344024
    vertex 3.9999999999999996 -3.9999999999999996 0.0
    vertex 7.420890479442815 -3.9999999999999982 5.070601802913292
  endloop
endfacet
facet normal 0.0 -1.0 0.0
  outer loop
    vertex 7.420890479442815 -3.9999999999999982 5.070601802913292
    vertex 3.9999999999999996 -3.9999999999999996 0.0
    vertex 7.948506700264176 -3.9999999999999982 4.921755117842364
  endloop
endfacet
facet normal 0.0 -1.0 0.0
  outer loop
    vertex 7.948506700264176 -3.9999999999999982 4.921755117842364
    vertex 3.9999999999999996 -3.9999999999999996 0.0
    vertex 8.496669191221295 -3.9999999999999982 4.914537387028424
  endloop
endfacet
facet normal 0.0 -1.0 0.0
  outer loop
    vertex 0.3496366593263991 -3.9999999999999996 48.0
    vertex 6.164537387028424 -3.9999999999999982 6.7533308087787045
    vertex 6.171755117842364 -3.9999999999999982 7.301493299735824
  endloop
endfacet
facet normal 0.0 -1.0 0.0
  outer loop
    vertex 0.3496366593263991 -3.9999999999999996 48.0
    vertex 6.171755117842364 -3.9999999999999982 7.301493299735824
    vertex 6.320601802913294 -3.9999999999999982 7.829109520557187
  endloop
endfacet
facet normal 0.0 -1.0 0.0
  outer loop
    vertex 0.3496366593263991 -3.9999999999999996 48.0
    vertex 6.320601802913294 -3.9999999999999982 7.829109520557187
    vertex 6.600933786634404 -3.9999999999999982 8.300223297720839
  endloop
endfacet
facet normal 0.0 -1.0 0.0
  outer loop
    vertex 0.3496366593263991 -3.9999999999999996 48.0
    vertex 6.600933786634404 -3.9999999999999982 8.300223297720839
    vertex 6.993646907585609 -3.9999999999999982 8.682729005865411
  endloop
endfacet
facet normal 0.0 -1.0 0.0
  outer loop
    vertex 0.3496366593263991 -3.9999999999999996 48.0
    vertex 6.993646907585609 -3.9999999999999982 8.682729005865411
    vertex 7.471978415563204 -3.9999999999999982 8.950559513101423
  endloop
endfacet
facet normal 0.0 -1.0 0.0
  outer loop
    vertex 0.3496366593263991 -3.9999999999999996 48.0
    vertex 7.471978415563204 -3.9999999999999982 8.950559513101423
    vertex 8.003330808778705 -3.9999999999999982 9.085462612971575
  endloop
endfacet
facet normal 0.0 -1.0 0.0
  outer loop
    vertex 0.3496366593263991 -3.9999999999999996 48.0
    vertex 8.003330808778705 -3.9999999999999982 9.085462612971575
    vertex 16.15 -3.9999999999999996 48.0
  endloop
endfacet
facet normal 0.0 -0.9486832980505138 -0.31622776601683794
  outer loop
    vertex 20.15 -20.0 48.0
    vertex 12.500000000000002 -3.9999999999999996 0.0
    vertex 16.5 -3.9999999999999996 0.0
  endloop
endfacet
facet normal 0.0 -0.9486832980505138 -0.31622776601683794
  outer loop
    vertex 12.500000000000002 -3.9999999999999996 0.0
    vertex 20.15 -20.0 48.0
    vertex 16.15 -19.999999999999996 48.0
  endloop
endfacet
facet normal 0.9971207399508153 2.9295551188200806e-17 0.07583027073628733
  outer loop
    vertex 0.3496366593263991 -3.9999999999999996 48.0
    vertex 0.3496366593263994 -20.000000000000004 48.0
    vertex 3.9999999999999996 -3.9999999999999996 0.0
  endloop
endfacet
facet normal 0.0 0.0 -1.0
  outer loop
    vertex -17.749999999999996 -3.9999999999999996 48.0
    vertex -11.468653347947317 -8.95 48.0
    vertex -17.749999999999996 -20.0 48.0
  endloop
endfacet
facet normal 0.0 0.0 -1.0
  outer loop
    vertex -11.468653347947317 -8.95 48.0
    vertex -17.749999999999996 -3.9999999999999996 48.0
    vertex -11.134924240491745 -8.51507575950825 48.0
  endloop
endfacet
facet normal 0.0 0.0 -1.0
  outer loop
    vertex -11.134924240491745 -8.51507575950825 48.0
    vertex -17.749999999999996 -3.9999999999999996 48.0
    vertex -10.699999999999994 -8.181346652052678 48.0
  endloop
endfacet
facet normal 0.0 0.0 -1.0
  outer loop
    vertex -10.699999999999994 -8.181346652052678 48.0
    vertex -17.749999999999996 -3.9999999999999996 48.0
    vertex -3.6503633406736 -3.9999999999999996 48.0
  endloop
endfacet
facet normal 0.0 0.0 -1.0
  outer loop
    vertex -17.749999999999996 -20.0 48.0
    vertex -11.468653347947317 -8.95 48.0
    vertex -11.678444235207039 -9.456480005284705 48.0
  endloop
endfacet
facet normal 0.0 0.0 -1.0
  outer loop
    vertex -17.749999999999996 -20.0 48.0
    vertex -11.678444235207039 -9.456480005284705 48.0
    vertex -11.749999999999995 -10.0 48.0
  endloop
endfacet
facet normal 0.0 0.0 -1.0
  outer loop
    vertex -10.699999999999994 -8.181346652052678 48.0
    vertex -3.6503633406736 -3.9999999999999996 48.0
    vertex -10.193519994715288 -7.971555764792956 48.0
  endloop
endfacet
facet normal 0.0 0.0 -1.0
  outer loop
    vertex -10.193519994715288 -7.971555764792956 48.0
    vertex -3.6503633406736 -3.9999999999999996 48.0
    vertex -9.649999999999995 -7.8999999999999995 48.0
  endloop
endfacet
facet normal 0.0 0.0 -1.0
  outer loop
    vertex -9.649999999999995 -7.8999999999999995 48.0
    vertex -3.6503633406736 -3.9999999999999996 48.0
    vertex -9.1064800052847 -7.9715557647929565 48.0
  endloop
endfacet
facet normal 0.0 0.0 -1.0
  outer loop
    vertex -9.1064800052847 -7.9715557647929565 48.0
    vertex -3.6503633406736 -3.9999999999999996 48.0
    vertex -8.599999999999994 -8.181346652052678 48.0
  endloop
endfacet
facet normal 0.0 0.0 -1.0
  outer loop
    vertex -8.599999999999994 -8.181346652052678 48.0
    vertex -3.6503633406736 -3.9999999999999996 48.0
    vertex -8.165075759508245 -8.515075759508251 48.0
  endloop
endfacet
facet normal 0.0 0.0 -1.0
  outer loop
    vertex -8.165075759508245 -8.515075759508251 48.0
    vertex -3.6503633406736 -3.9999999999999996 48.0
    vertex -7.831346652052674 -8.950000000000001 48.0
  endloop
endfacet
facet normal 0.0 0.0 -1.0
  outer loop
    vertex -7.831346652052674 -8.950000000000001 48.0
    vertex -3.6503633406736 -3.9999999999999996 48.0
    vertex -7.6215557647929515 -9.456480005284707 48.0
  endloop
endfacet
facet normal 0.0 0.0 -1.0
  outer loop
    vertex -7.6215557647929515 -9.456480005284707 48.0
    vertex -3.6503633406736 -3.9999999999999996 48.0
    vertex -7.5499999999999945 -10.0 48.0
  endloop
endfacet
facet normal 0.0 0.0 -1.0
  outer loop
    vertex -17.749999999999996 -20.0 48.0
    vertex -11.134924240491745 -11.48492424049175 48.0
    vertex -3.6493944322106535 -20.000000000000004 48.0
  endloop
endfacet
facet normal 0.0 0.0 -1.0
  outer loop
    vertex -11.134924240491745 -11.48492424049175 48.0
    vertex -17.749999999999996 -20.0 48.0
    vertex -11.468653347947317 -11.049999999999999 48.0
  endloop
endfacet
facet normal 0.0 0.0 -1.0
  outer loop
    vertex -11.468653347947317 -11.049999999999999 48.0
    vertex -17.749999999999996 -20.0 48.0
    vertex -11.678444235207039 -10.543519994715293 48.0
  endloop
endfacet
facet normal 0.0 0.0 -1.0
  outer loop
    vertex -11.678444235207039 -10.543519994715293 48.0
    vertex -17.749999999999996 -20.0 48.0
    vertex -11.749999999999995 -10.0 48.0
  endloop
endfacet
facet normal 0.0 0.0 -1.0
  outer loop
    vertex -3.6493944322106535 -20.000000000000004 48.0
    vertex -11.134924240491745 -11.48492424049175 48.0
    vertex -10.699999999999996 -11.818653347947322 48.0
  endloop
endfacet
facet normal 0.0 0.0 -1.0
  outer loop
    vertex -3.6493944322106535 -20.000000000000004 48.0
    vertex -10.699999999999996 -11.818653347947322 48.0
    vertex -10.19351999471529 -12.028444235207044 48.0
  endloop
endfacet
facet normal 0.0 0.0 -1.0
  outer loop
    vertex -3.6493944322106535 -20.000000000000004 48.0
    vertex -10.19351999471529 -12.028444235207044 48.0
    vertex -9.649999999999995 -12.1 48.0
  endloop
endfacet
facet normal 0.0 0.0 -1.0
  outer loop
    vertex -3.6493944322106535 -20.000000000000004 48.0
    vertex -9.649999999999995 -12.1 48.0
    vertex -9.106480005284702 -12.028444235207044 48.0
  endloop
endfacet
facet normal 0.0 0.0 -1.0
  outer loop
    vertex -3.6493944322106535 -20.000000000000004 48.0
    vertex -9.106480005284702 -12.028444235207044 48.0
    vertex -8.599999999999996 -11.818653347947322 48.0
  endloop
endfacet
facet normal 0.0 0.0 -1.0
  outer loop
    vertex -3.6493944322106535 -20.000000000000004 48.0
    vertex -8.599999999999996 -11.818653347947322 48.0
    vertex -8.165075759508245 -11.48492424049175 48.0
  endloop
endfacet
facet normal 0.0 0.0 -1.0
  outer loop
    vertex -3.6493944322106535 -20.000000000000004 48.0
    vertex -8.165075759508245 -11.48492424049175 48.0
    vertex -7.831346652052674 -11.05 48.0
  endloop
endfacet
facet normal 0.0 0.0 -1.0
  outer loop
    vertex -3.6493944322106535 -20.000000000000004 48.0
    vertex -7.831346652052674 -11.05 48.0
    vertex -7.6215557647929515 -10.543519994715295 48.0
  endloop
endfacet
facet normal 0.0 0.0 -1.0
  outer loop
    vertex -3.6493944322106535 -20.000000000000004 48.0
    vertex -7.6215557647929515 -10.543519994715295 48.0
    vertex -7.5499999999999945 -10.0 48.0
  endloop
endfacet
facet normal 0.0 0.0 -1.0
  outer loop
    vertex -3.6493944322106535 -20.000000000000004 48.0
    vertex -7.5499999999999945 -10.0 48.0
    vertex -3.6503633406736 -3.9999999999999996 48.0
  endloop
endfacet
facet normal 0.0 -1.0 0.0
  outer loop
    vertex -17.749999999999996 -3.9999999999999996 48.0
    vertex 0.0 -3.9999999999999996 0.0
    vertex -3.6503633406736 -3.9999999999999996 48.0
  endloop
endfacet
facet normal -0.9971207381330459 -6.038242010972652e-05 -0.07583027059804728
  outer loop
    vertex 0.0 -3.9999999999999996 0.0
    vertex -3.6493944322106535 -20.000000000000004 48.0
    vertex -3.6503633406736 -3.9999999999999996 48.0
  endloop
endfacet
facet normal -0.9379254195245927 0.0 -0.3468370040950316
  outer loop
    vertex -17.749999999999996 0.0 48.0
    vertex 0.0 -3.9999999999999996 0.0
    vertex -17.749999999999996 -3.9999999999999996 48.0
  endloop
endfacet
facet normal -0.9379254195245927 0.0 -0.3468370040950316
  outer loop
    vertex 0.0 -3.9999999999999996 0.0
    vertex -17.749999999999996 0.0 48.0
    vertex 0.0 0.0 0.0
  endloop
endfacet
facet normal 1.1895127227216202e-15 -0.9486832980505138 -0.31622776601683794
  outer loop
    vertex 0.3496366593263994 -20.000000000000004 48.0
    vertex 0.0 -3.9999999999999996 0.0
    vertex 3.9999999999999996 -3.9999999999999996 0.0
  endloop
endfacet
facet normal 1.1895127227216202e-15 -0.9486832980505138 -0.31622776601683794
  outer loop
    vertex 0.0 -3.9999999999999996 0.0
    vertex 0.3496366593263994 -20.000000000000004 48.0
    vertex -3.6493944322106535 -20.000000000000004 48.0
  endloop
endfacet
facet normal 0.0 0.0 -1.0
  outer loop
    vertex 16.5 0.0 0.0
    vertex 0.0 -3.9999999999999996 0.0
    vertex 0.0 0.0 0.0
  endloop
endfacet
facet normal 0.0 0.0 -1.0
  outer loop
    vertex 0.0 -3.9999999999999996 0.0
    vertex 16.5 0.0 0.0
    vertex 3.9999999999999996 -3.9999999999999996 0.0
  endloop
endfacet
facet normal 0.0 0.0 -1.0
  outer loop
    vertex 3.9999999999999996 -3.9999999999999996 0.0
    vertex 16.5 0.0 0.0
    vertex 12.500000000000002 -3.9999999999999996 0.0
  endloop
endfacet
facet normal 0.0 0.0 -1.0
  outer loop
    vertex 12.500000000000002 -3.9999999999999996 0.0
    vertex 16.5 0.0 0.0
    vertex 16.5 -3.9999999999999996 0.0
  endloop
endfacet
facet normal -0.0 -1.0 -0.0
  outer loop
    vertex 34.25 -20.0 51.99999999999999
    vertex 20.15 -20.0 48.0
    vertex 34.25 -20.0 48.0
  endloop
endfacet
facet normal -0.0 -1.0 -0.0
  outer loop
    vertex 20.15 -20.0 48.0
    vertex 34.25 -20.0 51.99999999999999
    vertex 16.15 -19.999999999999996 48.0
  endloop
endfacet
facet normal -0.0 -1.0 -0.0
  outer loop
    vertex 16.15 -19.999999999999996 48.0
    vertex 34.25 -20.0 51.99999999999999
    vertex 0.3496366593263994 -20.000000000000004 48.0
  endloop
endfacet
facet normal -0.0 -1.0 -0.0
  outer loop
    vertex 0.3496366593263994 -20.000000000000004 48.0
    vertex 34.25 -20.0 51.99999999999999
    vertex -3.6493944322106535 -20.000000000000004 48.0
  endloop
endfacet
facet normal -0.0 -1.0 -0.0
  outer loop
    vertex -3.6493944322106535 -20.000000000000004 48.0
    vertex 34.25 -20.0 51.99999999999999
    vertex -17.749999999999996 -20.0 48.0
  endloop
endfacet
facet normal -0.0 -1.0 -0.0
  outer loop
    vertex -17.749999999999996 -20.0 48.0
    vertex 34.25 -20.0 51.99999999999999
    vertex -17.749999999999996 -20.0 51.99999999999999
  endloop
endfacet
facet normal -1.0 0.0 0.0
  outer loop
    vertex -17.749999999999996 0.0 51.99999999999999
    vertex -17.749999999999996 -20.0 48.0
    vertex -17.749999999999996 -20.0 51.99999999999999
  endloop
endfacet
facet normal -1.0 0.0 0.0
  outer loop
    vertex -17.749999999999996 -20.0 48.0
    vertex -17.749999999999996 0.0 51.99999999999999
    vertex -17.749999999999996 -3.9999999999999996 48.0
  endloop
endfacet
facet normal -1.0 0.0 0.0
  outer loop
    vertex -17.749999999999996 -3.9999999999999996 48.0
    vertex -17.749999999999996 0.0 51.99999999999999
    vertex -17.749999999999996 0.0 48.0
  endloop
endfacet
endsolid Extruder Bracket
